<?xml version="1.0" encoding="utf-8"?>
<!-- Generator: Adobe Illustrator 23.0.3, SVG Export Plug-In . SVG Version: 6.00 Build 0)  -->
<svg version="1.1" id="Layer_1" xmlns="http://www.w3.org/2000/svg" xmlns:xlink="http://www.w3.org/1999/xlink" x="0px" y="0px"
	 viewBox="0 0 960 560" style="enable-background:new 0 0 960 560;" xml:space="preserve">
<style type="text/css">
	.st0{font-family:'Quattrocento';}
	.st1{font-size:243.5493px;}
</style>
<text id="XMLID_1_" transform="matrix(0.9439 0 0 1 358.5742 189.1675)" class="st0 st1">s</text>
<text id="XMLID_2_" transform="matrix(0.9439 0 0 1 504.0686 189.1664)" class="st0 st1">p</text>
<text id="XMLID_3_" transform="matrix(0.9439 0 0 1 341.6 399.834)" class="st0 st1">t</text>
<text id="XMLID_4_" transform="matrix(0.9439 0 0 1 504.0669 399.8319)" class="st0 st1">r</text>
<g id="XMLID_6_">
	<g id="XMLID_7_">
		<path id="XMLID_32_" d="M518.2,473.85c1.6,1.3,3.1,2.6,4.7,3.8c3.7,2.6,7.4,5.2,11.2,7.6c7,4.6,14.2,9.1,21.2,13.8
			c2.6,1.7,5,3.8,7.5,5.8c0.8,0.6,1.6,1.3,2.4,1.9c0.6,0.5,1.1,1,1.7,1.5c2.1,2.1,4.2,4.2,6.3,6.3c0.4,0.4,0.8,0.9,1.1,1.3
			c1.2,1.6,2.5,3.3,3.6,4.8c-1.7,1.3-3.2,2.5-4.6,3.8c-1.6,1.5-3.1,3-4.6,4.6c-0.6,0.6-1.1,0.8-1.8,0.3c-0.4-0.3-0.8-0.7-1.3-1
			c-0.6-0.6-1.2-1.1-1.8-1.7c-0.4-0.3-0.8-0.7-1.3-1c-0.8-0.8-1.6-1.6-2.4-2.3c-0.5-0.5-1.1-0.9-1.6-1.4c-0.9-0.9-1.8-1.8-2.8-2.7
			c-0.6-0.6-1.3-1.1-1.9-1.7c-1.1-1.1-2.3-2.2-3.4-3.3c-0.5-0.5-1.1-0.9-1.6-1.4c-0.9-0.9-1.8-1.8-2.8-2.7c-0.6-0.6-1.3-1.1-1.9-1.7
			c-0.7-0.7-1.4-1.3-2.1-2c-0.5-0.5-1.1-0.9-1.6-1.4c-8-7.8-16.8-14.6-26.2-20.6c-3.4-2.2-7.1-4-10.6-6.1c-1-0.6-1.8-0.5-2.8-0.1
			c-11.1,4.6-21.1,10.9-30.5,18.4c-8.5,6.8-16.3,14.3-24,22c-3.8,3.9-7.6,7.7-11.5,11.6c-0.3,0.3-0.6,0.5-1,0.9
			c-2.4-3.6-4.1-7.7-8.9-8.9c0.5-0.8,0.9-1.5,1.4-2.1c5.1-7.6,11.6-13.9,18.7-19.6c7.3-5.7,15.2-10.6,23.2-15.4
			c5.2-3.1,10.4-6.2,15.5-9.3c0.5-0.3,0.9-0.6,1.5-0.9c-0.6-0.6-1.2-0.4-1.8-0.4c-8.3-0.3-16.2,1.2-23.9,4.5
			c-5.8,2.5-11.3,5.7-16.5,9.2c-4.7,3.2-9.4,6.4-14.2,9.6c-7.2,4.7-14.6,8.9-22.8,11.7c-9.5,3.2-19.3,4.5-29.3,3.5
			c-8.9-0.9-17.3-3.6-25.3-7.4c-8.9-4.3-17.1-9.7-25-15.6c-0.7-0.5-1.5-1.1-2.2-1.7c0.1-0.1,0.1-0.3,0.2-0.4
			c2.4,0.3,4.8,0.4,7.2,0.9c5.6,1.1,11.3,2.3,16.9,3.6c9.3,2.2,18.6,1.9,28,0c9.9-2,19.3-5.5,28.6-9.4c4.7-2,9.3-4.1,13.9-6.1
			c3.1-1.3,6.2-2.6,9.3-3.8c3.2-1.3,6.3-2.6,9.6-3.6c5.9-1.7,11.9-3.5,18-4.5c0.7-0.1,1.3-0.3,2-0.4s1.4-0.2,2.1-0.3
			c0.2,0,0.4,0,0.6-0.1c0.8-0.1,1.6-0.2,2.4-0.3c0.3,0,0.6,0,0.9-0.1c1.5-0.1,3-0.2,4.5-0.3c1.5,0,2.9,0,4.4,0
			c1.4,0.1,2.8,0.2,4.2,0.3c5.1,0.6,9.7,2.5,14.5,4.3c2,0.7,4,1.6,6.2,1.5c0.8,0.1,1.7,0.2,2.5,0.3c0.2,0,0.5,0,0.7,0
			c0.7-0.1,1.4-0.2,2.2-0.3c1-0.2,2.1-0.3,3.1-0.7c2.5-1,5-2.1,7.5-3.1c1.7-0.6,3.4-1.1,5.1-1.6c0.5-0.2,1.1-0.3,1.6-0.4
			c0.7-0.1,1.5-0.2,2.2-0.3c0.3,0,0.6,0,0.8-0.1c1.1-0.1,2.1-0.2,3.2-0.3c1,0,1.9,0,2.9-0.1c1.2,0,2.5,0,3.7,0c0.8,0,1.7,0,2.5,0.1
			c1.2,0.1,2.3,0.2,3.5,0.3c0.3,0,0.6,0,0.9,0.1c0.7,0.1,1.4,0.2,2.1,0.3c0.2,0,0.4,0,0.6,0.1c0.7,0.1,1.4,0.2,2.1,0.3
			c1.5,0.3,3,0.6,4.5,1c3.6,0.9,7.3,1.7,10.9,2.7c8.7,2.4,17,5.8,25.3,9.1c9.2,3.7,18.4,7.5,27.9,10.5c5.4,1.7,10.9,2.9,16.4,3.9
			c0.6,0.1,1.2,0,1.8,0.1c0.7,0.1,1.4,0.2,2.2,0.3c0.3,0,0.6,0,0.9,0.1c1.2,0.1,2.3,0.2,3.5,0.3c2.2,0,4.5,0,6.7,0
			c1.2-0.1,2.3-0.2,3.5-0.3c3.6,0,7.2-0.9,10.6-1.8c2.3-0.6,4.5-1.5,6.7-2.3c0.6-0.2,1.2-0.4,1.8-0.6c2.6-1.2,5.2-2.3,8.1-3.6
			c-1.2,2.7-2.8,4.6-4.2,6.6c-0.4,0.4-0.8,0.9-1.1,1.3c-0.5,0.5-1.1,1.1-1.6,1.6c-0.4,0.4-0.9,0.8-1.3,1.1c-1.6,1.2-3.2,2.5-4.8,3.6
			c-2.5,1.6-5.1,3-7.8,4.3c-2.4,1.2-5,1.7-7.3,3.1c-0.7,0.4-1.7,0.5-2.5,0.8c-1.3,0.4-2.5,0.7-3.8,1.1c-0.9,0.2-1.8,0.3-2.7,0.5
			c-2.1,0.4-4.3,0.8-6.4,1.2c-0.7,0.1-1.4,0.2-2.1,0.3c-0.2,0-0.4,0-0.6,0.1c-0.7,0.1-1.5,0.2-2.2,0.3c-0.3,0-0.6,0-0.8,0.1
			c-1.1,0.1-2.1,0.2-3.2,0.3c-0.7,0-1.5,0-2.2,0.1c-2.8,0-5.6,0-8.4,0c-0.7,0-1.5,0-2.2-0.1c-1.1-0.1-2.1-0.2-3.2-0.3
			c-0.3,0-0.6,0-0.9-0.1c-0.8-0.1-1.7-0.2-2.5-0.3c-4.3-0.5-8.6-1.1-12.8-2.4c-3.4-1-6.8-2.1-10.1-3.4c-5.6-2.2-10.6-5.6-15.3-9.4
			c-6.3-5-12.2-10.4-19-14.6c-1.9-1.2-3.7-2.5-5.7-3.3c-1.8-0.7-3.6-1.4-5.6-1.5c-1.1,0-2.2-0.4-3.3-0.6c-0.8-0.1-1.6-0.2-2.5-0.3
			c-0.4,0-0.8,0-1.2-0.1c-1.7-0.1-3.5-0.2-5.2-0.3c-0.9,0-1.8,0-2.7,0c-1.1,0-2.2,0-3.6,0C517.8,473.55,518,473.75,518.2,473.85z"/>
		<path id="XMLID_31_" d="M657,434.15c1.9-3.7,3.7-7.3,5.5-11c2.2-4.6,4.1-9.3,6-14c1.1-2.8,2.3-5.6,3.3-8.4c1-2.5,1.8-5,2.7-7.6
			c1-2.6,2-5.2,2.9-7.8c0.9-2.4,1.8-4.9,2.8-7.3c1.3-3.2,2.8-6.4,4.1-9.7c1.5-3.9,3.4-7.7,5.3-11.4c3.1-6,6.8-11.7,11.1-17
			c0.2-0.3,0.5-0.5,0.7-0.7c0.4-0.4,0.8-0.8,1.2-1.2c0.8-0.6,1.7-0.5,2.3,0.1c0.7,0.8,1.1,1.8,0.8,2.9c-0.5,2.4-1.1,4.8-1.6,7.3
			c-0.8,3.8-1.6,7.7-2.3,11.5c-0.8,4.1-1.5,8.1-2.3,12.2c-1.1,5.6-2.2,11.3-3.4,16.9c-1.8,8-4.4,15.8-8.1,23.2
			c-1.7,3.5-4,6.7-6.4,9.8c-0.4,0.4-0.8,0.9-1.1,1.3c-0.4,0.5-0.9,0.9-1.3,1.4c-0.5,0.4-1.2,0.7-1.3,1.8c0.9-0.6,1.8-0.8,2.1-1.7
			c0.9-0.5,1.8-0.9,2.6-1.4c6.3-3.6,12.5-7.1,18.8-10.7c3.5-2,7.1-3.9,10.6-5.9c4.2-2.3,8.5-4.7,12.7-7c8.2-4.4,16.1-9.3,23.7-14.6
			c2.6-1.8,5.1-3.8,7.6-5.8c1.9-1.5,3.7-3.1,5.5-4.7c0.5-0.5,1.1-0.9,1.6-1.4c0.6-0.6,1.2-1.2,1.8-1.8c0.8-0.9,1.6-1.7,2.4-2.6
			c0.9-1,1.8-2,2.7-3c0.1,0.3,0.2,0.6,0.3,1c-1.9,5.9-4.3,11.7-7.2,17.2c-1,2-2.2,4-3.3,5.9c-0.4,0.6-0.7,1.1-1.1,1.7
			c-1.2,1.8-2.2,3.6-3.5,5.3c-1.7,2.2-3.5,4.3-5.3,6.4c-0.1,0.1-0.2,0.3-0.2,0.4c-0.4,0.4-0.8,0.9-1.1,1.3c-1.4,1.5-2.9,3.1-4.3,4.6
			c-0.8,0.9-1.8,1.6-2.7,2.4c-1.1,1-2.2,2-3.3,3c-0.5,0.4-0.9,0.8-1.4,1.1c-3.1,2.3-6.2,4.7-9.5,6.9c-2.8,1.9-5.9,3.5-8.8,5.2
			c-1.4,0.8-2.8,1.6-4.3,2.3c-2.6,1.3-5.3,2.5-7.9,3.7c-4.5,1.9-9,3.6-13.6,5.1c-2.6,0.8-5.3,1.4-7.8,2.5c-1.2,0.5-2.7,0.1-3.7,1.2
			c-2.2,0.5-4.4,0.9-6.7,1.4c-3.3,0.7-6.7,1.5-10,2.2c-1,0.2-2,0.3-3,0.4c-1.4,0.2-2.8,0.4-4.1,0.7c-1.5,0.2-3,0.5-4.5,0.8
			c-0.7,0.1-1.4,0.2-2.1,0.3c-1,0.1-2,0.2-2.9,0.4c-0.5-0.1-0.9-0.2-1.4-0.3c3.5-4.1,6.6-8.5,9.4-13.2
			C656.4,435.25,656.7,434.65,657,434.15z"/>
		<path id="XMLID_30_" d="M231.4,368.75c0.3,0.4,0.5,0.9,0.8,1.3c6.2,8.4,14,15,22.6,20.8c7.5,5.1,15.5,9.3,23.6,13.5
			c8.8,4.5,17.6,9.1,26.3,13.7c6,3.2,11.8,6.9,17.2,11c0.2,0.2,0.4,0.3,1,0.6c-0.2-0.6-0.3-0.8-0.4-1c-7.3-8.3-11.6-18.1-15-28.4
			c-2.8-8.8-4.8-17.9-6.6-27c-2.1-10.5-4.2-20.9-6.4-31.4c0-0.1,0-0.3,0-0.7c1.3,1.2,2.4,2.2,3.6,3.3c6.4,6.3,11.3,13.7,15.5,21.6
			c4.7,8.9,8.5,18.3,12,27.7c3.9,10.2,7.6,20.6,12.1,30.6c3.7,8.2,7.9,16.1,13.3,23.3c0.9,1.2,2,2.4,2.9,3.7
			c0.3,0.3,0.5,0.7,0.9,1.3c-3.7-0.6-7.2-1.1-10.6-1.8c-11.1-2-22-4.4-32.8-7.7c-12.9-3.9-25.3-8.8-36.9-15.8
			c-12.8-7.8-23.7-17.6-31.8-30.3c-5-7.7-8.6-16.1-11.2-24.9c-0.3-0.9-0.5-1.9-0.8-2.8C231,368.95,231.2,368.85,231.4,368.75z"/>
		<path id="XMLID_29_" d="M667.3,455.35c1.1-0.1,2.1-0.3,3.2-0.4c0.7-0.1,1.4-0.2,2.1-0.3c1.9-0.2,3.9-0.4,5.8-0.7
			c4.8-0.9,9.6-1.8,14.3-3c3.5-0.9,6.9-2,10.4-3.1c6.6-2.2,12.8-5.2,18.5-9.2c0.9-0.7,1.8-1.5,2.7-2.2c0.5-0.4,1-0.6,1.6-0.9
			c-0.8,3-2.6,5.6-3.9,8.3c-0.4,0.6-0.7,1.1-1.1,1.7c-1.2,1.6-2.4,3.1-3.6,4.7c-0.4,0.4-0.8,0.9-1.1,1.3c-1.4,1.4-2.8,2.8-4.3,4.3
			c-0.4,0.4-0.9,0.8-1.3,1.1c-2.4,1.8-4.8,3.6-7.3,5.3c-1.9,1.3-4,2.4-6.1,3.5c-2.4,1.2-4.7,2.4-7.2,3.5c-2,0.9-4.1,1.4-6.2,2.1
			c-0.2,0.1-0.5,0-0.7,0.1c-2.7,1.1-5.5,1.7-8.3,2.3c-2.1,0.5-4.2,1.1-6.3,1.6c-1.1,0.2-2.2,0.2-3.3,0.3c-0.7,0.1-1.4,0.3-2.1,0.4
			c-0.7,0.1-1.4,0.2-2.2,0.3c-0.2,0-0.4,0-0.5,0c-0.8,0.1-1.6,0.2-2.5,0.3c-0.3,0-0.6,0-0.9,0.1c-0.9,0.1-1.9,0.2-2.8,0.3
			c-0.4,0-0.8,0-1.2,0.1c-1.4,0.1-2.8,0.2-4.2,0.3c-1,0-1.9,0-2.9,0.1c-3.1,0-6.3,0-9.4,0c-1.1,0-2.1,0-3.2-0.1
			c-1.5-0.1-3-0.2-4.5-0.3c-0.4,0-0.9-0.1-1.3-0.1c-1-0.1-2-0.2-3-0.3c-0.3,0-0.6,0-0.9-0.1c-0.8-0.1-1.7-0.2-2.5-0.3
			c-0.3,0-0.6,0-0.9-0.1c-0.7-0.1-1.4-0.2-2.2-0.3c-0.2,0-0.4,0-0.6,0c-0.7-0.1-1.4-0.2-2.1-0.3c-10.3-1.1-20.3-3.3-30.2-6.2
			c-3.9-1.1-8-2.1-11.8-3.9c1.8-2.3,4.1-3.6,6.5-4.7c2.1-0.9,4.3-1.7,6.5-2.3c1.8-0.6,3.8-0.8,5.6-1.3c3.5-1,7.1-2.1,10.1-4.4
			c0.7-0.6,1.4-1.2,2.2-1.8c0.4-0.3,0.8-0.7,1.3-1c0.5-0.4,0.9-0.9,1.4-1.3c0.4-0.3,0.8-0.7,1.3-1c0.6-0.5,1.2-1.1,1.7-1.6
			c0.4-0.3,0.8-0.7,1.3-1c0.8-0.8,1.6-1.6,2.4-2.3c0.5-0.5,1.1-0.9,1.6-1.4c1.7-1.7,3.4-3.3,5.1-5c1-0.9,2-1.8,2.9-2.7
			c3.4-3.3,6.8-6.7,10.2-10c1.1-1,2.2-2,3.3-3.1c1.5-1.4,3-2.9,4.5-4.3c0.6-0.6,1.3-1.1,1.9-1.7c2.8-2.4,5.6-4.9,8.4-7.3
			c1.5-1.3,3-2.7,4.6-4c2.3-1.8,4.7-3.6,7-5.3c0.1-0.1,0.3-0.1,0.5-0.1c0,0.3,0.1,0.6,0,0.8c-1.6,4-3.3,7.9-5,11.9
			c-2.7,6.7-5.7,13.2-9.1,19.5c-1.9,3.5-4.1,6.6-6.2,9.9c-1.1,1.7-2.6,3.1-3.9,4.7c-0.3,0.4-0.6,0.8-0.9,1.1c-0.7,0.7-1.3,1.4-2,2
			c-2.4,2.2-4.8,4.3-7.6,6c-2.9,1.7-5.8,3.4-9.1,4.2c-0.4,0.1-0.8,0.4-1.1,0.6c-0.6,0.1-1.1,0.2-1.7,0.3c-0.7,0.1-1.3,0.2-2,0.3
			c-0.5,0-0.9-0.1-1.3,0.8c0.7-0.2,1.1-0.3,1.6-0.4c0.9-0.1,1.8-0.2,2.7-0.3c1.3-0.1,2.5-0.2,3.8-0.4c0.5,0,1,0,1.5-0.1
			c1.2-0.1,2.3-0.2,3.5-0.3c0.5,0,1,0,1.5-0.1c1.2-0.1,2.3-0.2,3.5-0.3c0.5,0,1,0,1.5-0.1c1.2-0.1,2.3-0.2,3.5-0.3
			c0.5,0,1,0,1.5-0.1c1.2-0.1,2.3-0.2,3.5-0.3c0.4,0,0.8,0,1.2-0.1c1.1-0.1,2.1-0.2,3.2-0.3c0.4,0,0.8,0,1.2-0.1
			c1-0.1,2.1-0.2,3.1-0.3c0.3,0,0.6,0,0.9-0.1c1-0.1,1.9-0.2,2.9-0.3c0.4,0,0.8,0,1.2-0.1c0.8-0.1,1.7-0.2,2.5-0.3
			c0.3,0,0.6,0,0.9-0.1c0.8-0.1,1.6-0.2,2.5-0.3c0.2,0,0.4,0,0.5,0c0.8-0.1,1.7-0.2,2.5-0.3c0.2,0,0.4,0,0.5,0
			C665.8,455.55,666.6,455.45,667.3,455.35z"/>
		<path id="XMLID_28_" d="M430.8,467.35c-0.4,0.1-0.9,0.2-1.3,0.3c-1.7,0.5-3.4,0.8-5,1.4c-3.4,1.3-7,1.5-10.4,2.8
			c-2.3,0.8-4.8,1.1-7.1,1.6c-8.3,1.8-16.7,3.3-25.1,4.3c-11.9,1.5-23.8,2.1-35.7,1.4c-12.4-0.8-24.5-3-36-8
			c-14.1-6.2-25.1-15.9-32.3-29.5c-0.3-0.6-0.7-1.2-0.9-2.1c0.4,0.2,0.7,0.5,1.1,0.8c6.1,4.7,12.9,8,20.2,10.4
			c7.3,2.4,14.7,3.9,22.2,5c10.4,1.6,20.9,2.4,31.4,3.1c7.6,0.5,15.2,1.1,22.8,1.6c1.5,0.1,3,0.2,4.5,0.3c0.8,0.1,1.6,0.2,2.4,0.4
			c0.5,0.1,0.9,0.2,1.4,0.3c0-0.1,0.1-0.2,0.1-0.4c-0.3-0.1-0.5-0.2-0.8-0.3c-0.3-0.1-0.7-0.2-1-0.3c-8.4-3.7-15.4-9.3-21.1-16.5
			c-2.4-3-4.6-6.2-6.7-9.4c-3.9-6.1-7.2-12.5-10.4-19c-2.1-4.1-4.2-8.3-6.3-12.4c-0.2-0.3-0.3-0.7-0.6-1.4c0.8,0.4,1.4,0.6,1.9,0.9
			c6.8,3.4,13,7.7,18.6,12.8c6.3,5.6,12.4,11.4,18.5,17.3c6.9,6.6,13.6,13.3,20.8,19.5c3.1,2.7,6.5,4.5,10.4,5.5
			c4.2,1.1,8.4,2.2,12.6,3.4c3.5,1,6.9,2.5,10,4.4c0.3,0.2,0.6,0.4,0.9,0.7C430.2,466.55,430.5,466.95,430.8,467.35z"/>
		<path id="XMLID_27_" d="M791.8,292.65c0,0.5,0,1-0.1,1.5c-0.1,0.9-0.2,1.9-0.3,2.8c0,0.3,0,0.6-0.1,0.9c-0.1,0.8-0.2,1.6-0.3,2.4
			c0,0.2,0,0.4-0.1,0.6c-0.1,0.7-0.2,1.4-0.3,2.1c-0.2,1-0.5,2-0.7,3c-0.9,5.4-2.3,10.7-4.1,15.8c-2.2,6.2-5,12-8.4,17.6
			c-3,5-6.6,9.5-10.5,13.8c-0.1,0.1-0.2,0.3-0.2,0.4c-0.4,0.4-0.8,0.9-1.2,1.3c-1.9,1.9-3.7,3.7-5.6,5.6c-0.7,0.6-1.3,1.2-2,1.8
			c-1.9,1.6-3.8,3.3-5.7,4.9c-0.5,0.4-0.9,0.7-1.4,1.1c-1.8,1.3-3.6,2.7-5.3,4c-0.7,0.5-1.4,1.1-2,1.6c-0.5,0.4-1,0.7-1.4,1.1
			c-2,1.4-3.9,2.7-5.9,4.1c-1.6,1.1-3.1,2.2-4.7,3.2c-3.1,2-6.2,4.1-9.4,6.1c-2.3,1.5-4.6,2.9-6.8,4.4c-1.7,1.1-3.3,2.3-5,3.4
			c-2.4,1.6-4.8,3.2-7.5,5c0.1-0.7,0.2-1,0.3-1.2c1.5-3.2,2.7-6.5,3.6-9.9c0.6-2.4,1.4-4.8,2-7.2c0.5-2,0.6-4.1,1-6.1
			c0.3-1.7,0.8-3.3,1-5c0.2-1.1,0.2-2.3,0.3-3.4c0.1-0.5,0.2-1,0.3-1.6c0.1-0.7,0.2-1.4,0.3-2.1c0-0.2,0-0.4,0.1-0.6
			c0.1-0.8,0.2-1.6,0.3-2.4c0-0.2,0-0.4,0-0.6c0.1-0.8,0.2-1.6,0.3-2.5c0-0.2,0-0.4,0-0.6c0.1-0.8,0.2-1.6,0.3-2.4
			c0-0.3,0-0.6,0.1-0.9c0.1-0.8,0.2-1.6,0.3-2.5c0-0.3,0-0.6,0.1-0.9c0.1-0.9,0.2-1.9,0.3-2.8c0-0.3,0-0.6,0.1-0.9
			c0.1-0.9,0.2-1.9,0.3-2.8c0-0.3,0-0.6,0.1-0.9c0.1-0.9,0.2-1.9,0.3-2.8c0-0.3,0-0.6,0.1-0.9c0.1-0.9,0.2-1.9,0.3-2.8
			c0-0.3,0-0.6,0.1-0.9c0.1-0.9,0.2-1.9,0.3-2.8c0-0.3,0-0.6,0.1-0.8c0.1-0.8,0.2-1.7,0.3-2.5c0-0.3,0-0.6,0.1-0.9
			c0.1-0.8,0.2-1.6,0.3-2.5c0-0.3,0-0.6,0.1-0.9c0.1-0.8,0.2-1.6,0.3-2.5c0-0.2,0-0.4,0-0.6c0.1-0.8,0.2-1.6,0.3-2.4
			c0-0.3,0-0.6,0.1-0.8c0.1-0.7,0.2-1.5,0.3-2.2c0-0.2,0-0.4,0-0.6c0.1-0.7,0.2-1.4,0.3-2.1c0.2-2.2,0.4-4.3,0.7-6.5
			c0.3-1.7,0.7-3.3,1-5c0.4-2,0.6-4,1-6s0.8-4.1,1.4-6c0.9-3.2,2-6.3,3-9.4c0.2-0.7,0.5-1.3,1.1-2c0.4,1.4,0.8,2.8,1.1,4.1
			c1.4,6,2.7,12.1,4,18.1c0.6,2.9,1,5.9,1.5,8.8c0.1,0.4,0.2,0.7,0.3,1.1c0.1,0.7,0.2,1.4,0.3,2.1c-0.1,0.1-0.1,0.2,0,0.3
			c0.1,0.7,0.2,1.4,0.3,2.2c0,0.2,0,0.4,0,0.5c0.1,0.8,0.2,1.6,0.3,2.5c0,0.3,0,0.6,0.1,0.9c0.1,0.8,0.2,1.7,0.3,2.5
			c0,0.4,0,0.8,0.1,1.2c0.1,1.2,0.2,2.3,0.3,3.5c0,0.6,0,1.2,0.1,1.9c0,3.5,0,6.9,0,10.4c0,0.6,0,1.2-0.1,1.9
			c-0.1,1.1-0.2,2.1-0.3,3.2c0,0.3,0,0.6-0.1,0.9c-0.1,0.7-0.2,1.4-0.3,2.2c-0.3,1.6-0.6,3.2-1,4.8c-0.7,2.9-1.6,5.8-2.4,8.8
			c0,0.2,0,0.3,0,0.5c-0.3,0.6-0.6,1.3-1,1.9c0.1,0.1,0.2,0.1,0.3,0.2c0.3-0.4,0.6-0.8,0.9-1.1c0.6-0.7,1.2-1.4,1.7-2.1
			c0.3-0.4,0.7-0.8,1-1.3c2.5-2.8,4.9-5.7,7.4-8.5c0.3-0.4,0.7-0.8,1-1.3c0.7-0.7,1.3-1.4,2-2.1c0.3-0.4,0.7-0.8,1-1.3
			c0.8-0.8,1.5-1.6,2.3-2.4c0.3-0.4,0.7-0.8,1-1.3c0.7-0.7,1.3-1.4,2-2.1c0.6-0.6,1.1-1.3,1.7-1.9c0.8-0.8,1.6-1.6,2.3-2.4
			c0.3-0.4,0.7-0.8,1-1.2c0.6-0.6,1.1-1.2,1.7-1.8c0.5-0.5,0.9-1.1,1.4-1.6c5.2-6.1,10.5-12.1,15.6-18.3
			c5.7-6.9,10.8-14.3,15.3-22.1c1-1.8,2.1-3.6,3.1-5.4c0.1,0.4,0.4,0.9,0.4,1.3C791.9,289.45,791.8,291.05,791.8,292.65z"/>
		<path id="XMLID_26_" d="M298.4,402.75c-0.7-0.2-1-0.2-1.3-0.4c-13.6-7.6-27.3-15.2-40-24.3c-8.9-6.3-17.1-13.3-24.4-21.5
			c-10.6-12.1-17.9-25.9-21.1-41.7c-1.6-7.9-2.2-15.8-2-23.9c0-0.4,0.1-0.7,0.2-1.4c0.3,0.5,0.4,0.7,0.5,1
			c4.3,10.9,10.6,20.4,18,29.3c6.1,7.2,12.7,13.9,19.2,20.6c6.8,7,13.4,14.1,19.1,22c0.8,1.1,1.6,2.3,2.4,3.4c0.2,0.3,0.4,0.5,0.8,1
			c0-0.7,0.1-1,0-1.2c-2.8-7.9-3.5-16.1-3.4-24.5c0.1-8,0.9-15.9,2-23.7c1.4-9.8,2.9-19.6,4.4-29.4c0.2-1.5,0.4-3.1,0.9-4.7
			c0.3,0.6,0.6,1.1,0.8,1.7c3.2,6.7,5.2,13.8,6.7,21c1.8,8.5,2.9,17.1,3.8,25.7c1,9.7,1.9,19.5,3.1,29.2c1.2,10.3,2.8,20.6,6,30.6
			c1,3.1,2.3,6.2,3.5,9.2C297.8,401.45,298,401.85,298.4,402.75z"/>
		<path id="XMLID_25_" d="M755.8,281.65c0,0.2,0,0.4,0.1,0.6c0.1,0.8,0.2,1.7,0.3,2.5c0,0.9,0,1.7,0.1,2.6c0,0.7,0,1.3,0,2
			c0.1,0,0.2,0,0.3,0c0.1-0.6,0.2-1.1,0.3-1.7c0.3-2.6,1.2-5,2-7.5c0.8-2.2,1.3-4.5,2.2-6.7c1.2-3.2,2.7-6.4,4-9.5
			c1.2-2.9,2.4-5.9,3.7-8.8c1.7-3.9,3.5-7.7,5-11.7c1.7-4.4,3.3-8.9,4.6-13.4c1-3.4,2-6.8,2.4-10.4c0.2-1.7,0.7-3.4,1.1-5
			c0.2-0.8,0.2-1.6,0.2-2.4c0.1-0.7,0.2-1.4,0.3-2.1c0-0.4,0-0.8,0.1-1.2c0.1-1.1,0.2-2.1,0.3-3.2c0-0.6,0-1.2,0.1-1.8
			c0.1-1.4,0.3-2.8,0.4-4.3c0.7,0.1,1.3,0.1,1.9,0.2c1.2,0.9,1.3,2.4,1.6,3.7c1.1,4.8,2.1,9.7,3.1,14.6c0.2,0.8,0.3,1.6,0.4,2.4
			c0.1,0.8,0.2,1.6,0.3,2.5c0,0.2,0,0.4,0,0.6c0.1,1.1,0.2,2.1,0.3,3.2c0,0.5,0,1,0.1,1.5c0,4.1,0,8.3,0,12.4c0,0.5,0,1-0.1,1.5
			c-0.1,1.1-0.2,2.1-0.3,3.2c0,0.3,0,0.6,0,0.8c-0.1,0.7-0.2,1.5-0.3,2.2c-0.2,1.1-0.5,2.3-0.7,3.4c-0.7,5.7-2.2,11.2-3.8,16.6
			c-2.4,8-5.9,15.6-9.9,22.9c-2.1,3.8-4.3,7.5-6.7,11.1c-2.3,3.5-5,6.7-7.6,10.1c-0.2,0.3-0.4,0.6-0.6,1c-0.4,0.5-0.8,0.9-1.1,1.4
			c-1.1,1.2-2.1,2.5-3.2,3.7c-0.5,0.6-1,1.1-1.5,1.7c-1.2,1.3-2.4,2.7-3.7,4c-1.8,1.8-3.7,3.5-5.6,5.3c-0.2,0.2-0.4,0.5-0.7,0.7
			c-0.4,0.4-0.9,0.8-1.3,1.1c-0.1,0.1-0.2,0.2-0.3,0.3c-0.1-0.2-0.3-0.4-0.4-0.6c0-0.5,0-0.9,0-1.4c0-0.3,0-0.6,0.1-0.9
			c0.1-1.3,0.2-2.5,0.3-3.8c0-3,0-6.1,0-9.1c-0.1-1.3-0.2-2.5-0.3-3.8c0-0.3,0-0.6-0.1-0.9c-0.1-0.8-0.2-1.7-0.3-2.5
			c0-0.2,0-0.4,0-0.5c-0.1-0.7-0.2-1.4-0.3-2.1c-0.2-1.3-0.3-2.6-0.6-4c-0.3-1.7-0.6-3.5-1.1-5.2c-0.4-1.6-0.9-3.3-1.4-4.9
			c-0.6-2.2-1.1-4.4-1.8-6.6c-1.2-3.9-2.4-7.9-3.7-11.8c-1-3.1-2.1-6.3-3-9.4c-1.2-3.9-2.3-7.8-3.4-11.8c-0.9-3.5-1.8-6.9-2.2-10.5
			c-0.2-1.4-0.5-2.9-0.7-4.3c-0.1-0.7-0.2-1.4-0.3-2.1c0-0.2,0-0.4-0.1-0.6c-0.1-0.7-0.2-1.4-0.3-2.1c0-0.2,0-0.4,0-0.6
			c-0.1-0.9-0.2-1.9-0.3-2.8c0-0.4,0-0.8-0.1-1.2c-0.1-1.6-0.2-3.2-0.3-4.9c0-2.1,0-4.3,0-6.4c0.1-0.8,0.1-1.6,0.3-2.4
			c0-0.3,0.2-0.5,0.4-0.8c1.9,3.6,3.7,7.3,5.8,10.9c1.9,3.4,4.1,6.6,6.2,9.9c0.4,0.6,0.8,1.1,1.1,1.7c0.8,1.3,1.5,2.5,2.3,3.8
			c2,3.4,4,6.8,6,10.3c3.2,5.7,5.8,11.7,7.6,18.1c0.9,3.3,1.5,6.7,2.3,10c0.1,0.4,0.2,0.7,0.4,1.1
			C755.6,280.25,755.7,280.95,755.8,281.65z"/>
		<path id="XMLID_24_" d="M244,293.35c0.6-11.4,3.3-22.3,8-32.7c2.3-5.1,4.9-10.2,7.6-15.1c5.2-9.5,10.9-18.7,15.2-29.2
			c0.2,0.8,0.3,1.3,0.4,1.7c1.4,12.4,0.3,24.7-2.5,36.8c-2.1,9.2-5,18.1-7.8,27.1c-2.5,8.3-4.9,16.6-6.3,25.2
			c-1.7,9.5-2.3,19.1-1.6,28.8c0,0.4,0,0.8,0.1,1.2c0,0.1,0,0.2-0.1,0.4c-0.2-0.1-0.4-0.2-0.5-0.4c-10.1-11-19.5-22.5-27.4-35.2
			c-7.5-12.1-13.3-24.8-16.8-38.6c-2.8-11.3-3.8-22.8-2.8-34.5c0.6-7.3,2-14.5,4.1-21.5c0.1-0.3,0.2-0.6,0.5-1.3
			c0.4,1.8,0.6,3.3,0.9,4.7c2.4,12.2,6.5,23.8,11.1,35.3c3.8,9.5,7.7,19,11.4,28.5c2.5,6.6,4.5,13.3,6,20.3c0.1,0.3,0.2,0.6,0.3,0.9
			c0.1,0,0.2,0,0.3-0.1C244,294.75,244,294.05,244,293.35z"/>
		<path id="XMLID_23_" d="M725.2,176.55c0.2,0.2,0.4,0.4,0.7,0.6c0.4,0.4,0.9,0.7,1.3,1.1c1.7,1.4,3.3,2.8,5,4.2
			c0.6,0.5,1.2,0.9,1.8,1.4c0.4,0.4,0.9,0.8,1.3,1.1c0.6,0.5,1.1,1,1.7,1.6c0.4,0.4,0.9,0.8,1.3,1.2c1.4,1.4,2.8,2.8,4.3,4.3
			c0.4,0.4,0.8,0.9,1.2,1.3c2.2,2.7,4.3,5.5,6,8.6s3.2,6.3,4.1,9.7c0,0.1,0.1,0.2,0.2,0.2c0.2,0.5,0.3,1.1,0.5,1.6
			c0.1,0,0.1,0,0.2-0.1c0-1.5,0-3.1,0-4.6c0-1,0-1.9,0.1-2.9c0.1-1.5,0.2-3,0.3-4.5c0-0.4,0-0.8,0.1-1.2c0.1-1.2,0.2-2.3,0.3-3.5
			c0-0.4,0-0.8,0.1-1.2c0.1-1.1,0.2-2.1,0.3-3.2c0-0.4,0-0.8,0.1-1.2c0.1-1,0.2-1.9,0.3-2.9c0-0.4,0-0.8,0.1-1.2
			c0.1-1,0.2-1.9,0.3-2.9c0-0.4,0-0.8,0.1-1.2c0.1-1,0.2-1.9,0.3-2.9c0-0.4,0-0.8,0.1-1.2c0.1-1.1,0.2-2.1,0.3-3.2
			c0-0.4,0-0.8,0.1-1.2c0.1-1.2,0.2-2.3,0.3-3.5c0-0.5,0-1,0.1-1.5c0.1-1.6,0.2-3.2,0.3-4.8c0-0.8,0-1.7,0.1-2.5
			c0.1-0.4,0.2-0.9,0.2-1.3c0-2.6,0.1-5.1,0-7.7c0-0.8-0.2-1.6-0.2-2.5c0-0.7,0-1.5-0.1-2.2c-0.1-1.2-0.2-2.3-0.3-3.5
			c0-0.3,0-0.6-0.1-0.9c-0.1-0.8-0.2-1.6-0.3-2.4c-0.2-1.3-0.4-2.5-0.6-3.8c-0.2-1.2-0.4-2.4-0.8-3.6c-1-3.2-1.9-6.4-3.5-9.3
			c-0.4-0.7-0.8-1.5-0.1-2.1c0.6-0.6,1.4-0.2,2.2,0.1c2.1,0.6,3,2.3,4.1,3.9c2,3.3,4,6.6,5.9,9.9c1.4,2.5,2.7,5.1,3.8,7.8
			c1.3,3,2.5,6,3.6,9.1c1.6,4.3,2.8,8.7,3.6,13.2c0.3,1.7,0.7,3.5,1,5.2c0.1,0.7,0.2,1.4,0.3,2.1c0,0.2,0,0.4,0,0.6
			c0.1,1,0.2,1.9,0.3,2.9c0,0.5,0,1,0.1,1.5c0,3.4,0,6.7,0,10.1c0,0.3,0,0.6,0,0.9c-0.1,0.8-0.2,1.7-0.3,2.5c-0.3,1.9-0.7,3.8-1,5.7
			c-1,6-2.7,11.7-4.6,17.4c-2.7,8.1-5.6,16.2-8.2,24.3c-1.3,3.9-2,8-3,12c-0.1,0.5,0,1,0,1.5c-0.1,0.7-0.2,1.4-0.3,2.1
			c0,0.2,0,0.4,0,0.6c-0.2,0.2-0.4,0.4-0.6,0.6c-2-5.4-4.4-10.7-7.1-15.9c-3.6-6.9-7.9-13.4-12.3-19.7c-1.7-2.4-3.4-4.8-5.1-7.2
			c-0.2-0.3-0.4-0.6-0.7-1c-4.2-6.1-8.5-12.2-12.7-18.4c-3.2-4.8-6.1-9.8-8.6-15s-4.7-10.4-6.3-16c-0.6-2.1-1.1-4.3-1.7-6.5
			c0-1.2,0.9-0.5,1.4-0.7c1.3,0.7,2.7,1.4,4,2c0.5,0.5,0.9,0.9,1.4,1.4c1.3,2.2,2.6,4.4,4,6.6c0.5,0.7,1.1,1.4,1.6,2.1
			c0.9,0.9,1.9,1.9,2.8,2.8c0.7,0.6,1.4,1.3,2,1.9c0.4,0.4,0.9,0.8,1.3,1.1c0.3,0.3,0.7,0.6,1,0.9
			C724.3,175.85,724.8,176.15,725.2,176.55z"/>
		<path id="XMLID_22_" d="M244.8,217.45c4.2-12.1,11.8-22,20.8-30.9c4.8-4.8,9.8-9.4,14.5-14.2c3.6-3.7,7-7.7,10.5-11.6
			c0.2-0.2,0.3-0.6,0.4-0.9c0.2,0.1,0.4,0.2,0.5,0.3c-0.3,2.6-0.4,5.2-0.8,7.7c-1.6,11.3-6.2,21.5-12.4,30.9
			c-4.6,6.8-9.4,13.5-14.2,20.1c-4.9,6.8-9.7,13.7-13.4,21.3c-2.9,5.8-5.1,11.8-6.5,18.1c0,0.1-0.1,0.2-0.3,0.5
			c-0.4-0.6-0.7-1.2-1-1.7c-5.6-10.1-9.8-20.8-13.1-31.9c-2.7-9.1-4.6-18.3-5.6-27.8c-1.4-12.9-1.2-25.8,1.9-38.5
			c2.5-10.4,6.9-19.9,14.1-28.1c0.4-0.5,0.9-1,1.4-1.5c0.5,0.7,0.3,1.2,0.2,1.7c-1.9,8-2.1,16.1-1.3,24.2c0.8,9.6,2,19.1,3,28.7
			c0.9,8.4,1.6,16.7,1.4,25.1c-0.1,2.5-0.2,4.9-0.4,7.4c-0.1,0.7-0.2,1.4-0.3,2.1c-0.1,0.6-0.2,1.1-0.4,1.7c0.1,0,0.2,0.1,0.3,0.1
			c0.1-0.4,0.2-0.8,0.4-1.2C244.5,218.55,244.6,217.95,244.8,217.45z"/>
		<path id="XMLID_21_" d="M732.6,96.15c3,3.7,5.6,7.6,7.6,11.9c2.7,5.8,4.6,11.9,5.9,18.2c0.4,2.3,0.9,4.5,1.4,6.8
			c0.1,0.7,0.2,1.4,0.3,2.1c0,0.2,0,0.4,0.1,0.6c0.1,0.7,0.2,1.4,0.3,2.2c0,0.3,0,0.6,0.1,0.9c0.1,0.9,0.2,1.9,0.3,2.8
			c0,0.3,0,0.6,0.1,0.9c0.1,1.3,0.2,2.6,0.3,3.8c0,0.7,0,1.5,0.1,2.2c0,1.2,0,2.4,0,3.7c0,4.6,0,9.2,0,13.8c0,0.8,0,1.7-0.1,2.5
			c-0.1,1.5-0.2,3-0.3,4.5c0,0.5,0,1-0.1,1.5c-0.1,1.2-0.2,2.3-0.3,3.5c0,0.4,0,0.8-0.1,1.2c-0.1,1-0.2,2.1-0.3,3.1
			c0,0.4,0,0.8-0.1,1.2c-0.2,0.8-0.4,1.5-0.6,2.2c-1.3-1.9-2.6-3.8-4-5.6c-2.3-3.1-5-5.9-7.9-8.6c-0.6-0.5-1.1-1.1-1.7-1.6
			c-0.4-0.3-0.8-0.7-1.3-1c-0.5-0.4-0.9-0.9-1.4-1.3c-0.4-0.3-0.8-0.7-1.3-1c-5.3-4.1-10.6-8.1-15.8-12.2c-4.5-3.5-9.1-7-13.2-11
			c-1.1-1.1-2.2-2.2-3.3-3.3c-11-10.8-16.4-25.9-16.7-35.1c1.4,0.7,1.8,2.3,3.1,3.1c0.5,0.6,1,1.1,1.5,1.7c0.8,0.8,1.6,1.6,2.3,2.3
			c0.6,0.5,1.1,1,1.7,1.5c1.8,1.6,3.5,3.2,5.3,4.6c2.6,2.1,5.3,4,8,6c3,2.2,6.1,4.2,9.1,6.4c2.6,1.9,5.1,3.9,7.6,6
			c2.4,2,4.7,4,7,6.1c0.3,0.3,0.7,0.7,1,1c0.8,0.9,1.7,1.8,2.5,2.7c0.4,0.4,0.8,0.9,1.1,1.3c0.5,0.7,1.1,1.3,1.6,2
			c0.4,0.5,0.8,1.1,1.2,1.6c0.1-0.1,0.2-0.1,0.3-0.2c-0.2-1-0.4-1.9-0.6-2.9c-0.2-0.9-0.5-1.8-0.6-2.6c-0.4-2.2-0.6-4.3-1-6.5
			c-0.4-2-0.9-3.9-1.3-5.9c-0.7-3.1-1.3-6.3-2.1-9.4c-0.6-2.4-1.3-4.7-2-7.1c-0.5-1.7-0.9-3.4-1.4-5.1c-0.2-0.6-0.4-1.3-0.7-1.9
			c-1.1-2.9-2.1-5.8-3.4-8.7c-1.2-2.8-2.5-5.7-4-8.4c-1.8-3.2-3.9-6.3-5.9-9.5c-0.1-0.1-0.1-0.3-0.2-0.7c0.7,0.1,1.2,0.1,1.8,0.3
			c5.2,1.7,9.9,4.4,14.4,7.6c0.8,0.5,1.4,1.2,2.1,1.9C730.2,93.65,731.4,94.95,732.6,96.15z"/>
		<path id="XMLID_20_" d="M316.6,107.95c0,0.2,0,0.3,0,0.5c-0.1,0.7-0.2,1.4-0.3,2.1c-0.3,1.6-0.7,3.2-1.1,4.9
			c-0.9,4.2-2.4,8.1-4.2,12c-4,8.6-10.1,15.6-16.9,22.2c-6.5,6.2-13.5,11.7-20.5,17.4c-5.7,4.6-11.3,9.1-16.5,14.3
			c-2.1,2-4,4.2-6,6.3c-0.4,0.4-0.7,0.8-1.3,1.5c-0.1-1.5-0.3-2.8-0.3-4c-0.5-9.6-0.7-19.2-0.4-28.9c0.5-12.1,1.8-24.1,5.4-35.7
			c2.4-7.7,5.7-14.9,10.8-21.3c5-6.2,11.2-10.7,18.7-13.4c0.3-0.1,0.6-0.2,1-0.3c-0.1,0.3-0.1,0.5-0.2,0.6
			c-4.4,7.9-7.5,16.4-10.3,24.9c-3.9,11.9-7.1,24-10.4,36.1c-0.7,2.7-1.6,5.5-2.3,8.2c0,0.1,0.1,0.3,0.2,0.6
			c0.3-0.2,0.5-0.3,0.7-0.5c5.6-6.2,12.2-11.4,18.7-16.6c7.4-5.9,14.7-11.7,22-17.7c4.3-3.5,8.2-7.5,11.7-11.8
			c0.2-0.2,0.3-0.5,0.5-0.7C316,108.35,316.3,108.15,316.6,107.95z"/>
		<path id="XMLID_19_" d="M703.7,115.65c-0.6-0.6-1.2-1.1-1.8-1.7c-0.8-0.7-1.5-1.4-2.3-2.1c-1.2-1.2-2.4-2.4-3.7-3.7
			c-0.8-0.9-1.6-1.7-2.4-2.6c-0.7-0.7-1.3-1.4-2-2.1c-0.3-0.4-0.7-0.8-1-1.3c-0.5-0.6-1.1-1.2-1.6-1.8c-0.3-0.4-0.7-0.9-1-1.3
			c-1.9-2.3-3.8-4.5-5.7-6.8c-0.3-0.4-0.7-0.9-1-1.3c-4.8-5.9-9.6-11.9-14.4-17.8c-1-1.2-2-2.5-3.1-3.7c-0.3-0.4-0.7-0.9-1-1.3
			c-0.3-0.4-0.7-0.7-1-1.1c-0.3-0.4-0.7-0.8-1-1.3c-0.7-0.7-1.3-1.4-2-2.1c-0.5-0.5-0.9-1.1-1.4-1.6c-1.6-1.6-3.1-3.2-4.7-4.8
			c0.1-0.1,0.1-0.2,0.2-0.3c1.2,0.2,2.4,0.3,3.5,0.5c8,1.6,15.6,4.2,22.8,8c2.6,1.4,5.1,3,7.6,4.7c2.4,1.7,4.6,3.5,6.9,5.3
			c0.5,0.5,1.1,1,1.6,1.5c1.1,1.1,2.2,2.2,3.2,3.3c0.5,0.6,1,1.1,1.5,1.7c1.3,1.7,2.7,3.3,4,5c0.3,0.5,0.7,0.9,1,1.4
			c0.7,1.1,1.3,2.3,2,3.4c3.9,6,6.7,12.5,8.7,19.3c1.2,4,2.2,8,2.7,12.1c0,0.3,0.2,0.5,0.3,0.7c0.1,0.7,0.2,1.4,0.3,2.1
			c-0.4,0.8-0.8,0.4-1.3,0.1c-2.5-1.7-4.9-3.3-7.4-5.1c-1.1-0.8-2.1-1.6-3.1-2.5c-0.4-0.3-0.9-0.7-1.3-1c-0.4-0.3-0.7-0.7-1.1-1
			C704.6,116.25,704.2,115.95,703.7,115.65z"/>
		<path id="XMLID_18_" d="M314.2,96.75c-1.6,1.9-3.3,3.8-4.9,5.7c-7.9,9.1-16.6,17.4-26.6,24.2c-1.4,1-2.9,1.9-4.7,3
			c0.3-2.1,0.4-3.9,0.7-5.6c1.6-10,4.7-19.4,10.1-28c5.6-9,13-16.3,21.7-22.4c2.1-1.5,4.3-2.8,6.4-4.3c4.2-2.8,8.6-5.1,13.2-7.3
			c3.4-1.6,6.9-3.1,10.3-4.7c0.3-0.1,0.7-0.2,1.2-0.3c-8.2,13.3-16.9,26.1-26.3,38.3C314.9,95.85,314.6,96.35,314.2,96.75z"/>
		<path id="XMLID_17_" d="M679.9,424.75c-0.3,0.9-1.2,1.1-2.1,1.7c0.2-1.1,0.8-1.3,1.3-1.8C679.4,424.75,679.6,424.75,679.9,424.75z
			"/>
		<path id="XMLID_16_" d="M381.2,460.45c0.3,0.1,0.7,0.2,1,0.3c-0.2,0.1-0.4,0.3-0.7,0.4c-0.8-0.1-1.6-0.2-2.4-0.4
			C379.8,460.65,380.5,460.55,381.2,460.45z"/>
		<path id="XMLID_15_" d="M244.8,217.45c-0.1,0.5-0.2,1.1-0.4,1.6c-0.1-0.2-0.2-0.4-0.4-0.6c0.1-0.7,0.2-1.4,0.3-2.1
			C244.5,216.75,244.6,217.05,244.8,217.45z"/>
		<path id="XMLID_14_" d="M756.8,287.65c-0.1,0.6-0.2,1.1-0.3,1.7c-0.1,0-0.2,0-0.3,0c0-0.7,0-1.3,0-2
			C756.4,287.45,756.6,287.55,756.8,287.65z"/>
		<path id="XMLID_13_" d="M244,293.35c0,0.7,0,1.4,0,2.2c-0.1,0-0.2,0-0.3,0.1c-0.1-0.3-0.2-0.6-0.3-0.9
			C243.7,294.25,243.8,293.75,244,293.35z"/>
		<path id="XMLID_12_" d="M770.3,366.95c-0.1-0.3-0.2-0.6-0.3-1c0.1-0.2,0.2-0.3,0.3-0.5c0.2,0,0.5,0.1,0.7,0.1
			C770.7,366.05,770.5,366.55,770.3,366.95z"/>
		<path id="XMLID_11_" d="M617.1,459.05c0.4,0.1,0.7,0.3,1.1,0.4c-0.9,0.1-1.8,0.2-2.7,0.3c-0.1-0.1-0.2-0.2-0.3-0.4
			C615.7,459.25,616.4,459.15,617.1,459.05z"/>
		<path id="XMLID_10_" d="M615.1,459.35c0.1,0.1,0.2,0.2,0.3,0.4c-0.4,0.1-0.9,0.2-1.6,0.4C614.1,459.25,614.6,459.35,615.1,459.35z
			"/>
		<path id="XMLID_9_" d="M381.5,461.05c0.2-0.1,0.4-0.3,0.7-0.4c0.3,0.1,0.5,0.2,0.8,0.3c0,0.1-0.1,0.2-0.1,0.4
			C382.4,461.25,382,461.15,381.5,461.05z"/>
		<path id="XMLID_8_" d="M244,218.45c0.1,0.2,0.2,0.4,0.4,0.6c-0.1,0.4-0.2,0.8-0.4,1.2c-0.1,0-0.2-0.1-0.3-0.1
			C243.8,219.55,243.9,218.95,244,218.45z"/>
	</g>
</g>
</svg>
